<mxfile host="app.diagrams.net" agent="Mozilla/5.0 (Windows NT 10.0; Win64; x64) AppleWebKit/537.36 (KHTML, like Gecko) Chrome/134.0.0.0 Safari/537.36 OPR/119.0.0.0 (Edition std-2)" version="27.2.0">
  <diagram name="Página-1" id="a2hrL7XJilccrG6Dr2go">
    <mxGraphModel dx="2465" dy="912" grid="1" gridSize="10" guides="1" tooltips="1" connect="1" arrows="1" fold="1" page="1" pageScale="1" pageWidth="827" pageHeight="1169" math="0" shadow="0">
      <root>
        <mxCell id="0" />
        <mxCell id="1" parent="0" />
        <mxCell id="q6Y3ustupFghnCxS8Xfa-1" value="Personagem" style="rounded=1;whiteSpace=wrap;html=1;" parent="1" vertex="1">
          <mxGeometry x="320" y="320" width="120" height="60" as="geometry" />
        </mxCell>
        <mxCell id="IbeRMF_jTNz4FEDVCqAd-54" value="" style="edgeStyle=orthogonalEdgeStyle;rounded=0;orthogonalLoop=1;jettySize=auto;html=1;endArrow=none;startFill=0;" parent="1" source="IbeRMF_jTNz4FEDVCqAd-1" target="IbeRMF_jTNz4FEDVCqAd-17" edge="1">
          <mxGeometry relative="1" as="geometry">
            <mxPoint x="220" y="270" as="targetPoint" />
            <Array as="points">
              <mxPoint x="145" y="260" />
            </Array>
          </mxGeometry>
        </mxCell>
        <mxCell id="IbeRMF_jTNz4FEDVCqAd-1" value="Armas" style="rounded=1;whiteSpace=wrap;html=1;" parent="1" vertex="1">
          <mxGeometry x="85" y="140" width="120" height="60" as="geometry" />
        </mxCell>
        <mxCell id="IbeRMF_jTNz4FEDVCqAd-2" value="Raça" style="rounded=1;whiteSpace=wrap;html=1;" parent="1" vertex="1">
          <mxGeometry x="320" y="140" width="120" height="60" as="geometry" />
        </mxCell>
        <mxCell id="IbeRMF_jTNz4FEDVCqAd-3" value="Classe" style="rounded=1;whiteSpace=wrap;html=1;" parent="1" vertex="1">
          <mxGeometry x="560" y="140" width="120" height="60" as="geometry" />
        </mxCell>
        <mxCell id="IbeRMF_jTNz4FEDVCqAd-4" style="edgeStyle=orthogonalEdgeStyle;rounded=0;orthogonalLoop=1;jettySize=auto;html=1;exitX=0.5;exitY=1;exitDx=0;exitDy=0;" parent="1" source="IbeRMF_jTNz4FEDVCqAd-3" target="IbeRMF_jTNz4FEDVCqAd-3" edge="1">
          <mxGeometry relative="1" as="geometry" />
        </mxCell>
        <mxCell id="IbeRMF_jTNz4FEDVCqAd-5" value="&lt;div&gt;(abstrata)&lt;/div&gt;Combatente" style="rounded=1;whiteSpace=wrap;html=1;" parent="1" vertex="1">
          <mxGeometry x="-90" y="140" width="120" height="60" as="geometry" />
        </mxCell>
        <mxCell id="IbeRMF_jTNz4FEDVCqAd-7" value="Atributos base" style="rounded=1;whiteSpace=wrap;html=1;" parent="1" vertex="1">
          <mxGeometry x="560" y="320" width="120" height="60" as="geometry" />
        </mxCell>
        <mxCell id="IbeRMF_jTNz4FEDVCqAd-8" value="Ação" style="rounded=1;whiteSpace=wrap;html=1;" parent="1" vertex="1">
          <mxGeometry x="320" y="500" width="120" height="60" as="geometry" />
        </mxCell>
        <mxCell id="IbeRMF_jTNz4FEDVCqAd-9" value="Habiliade" style="rounded=1;whiteSpace=wrap;html=1;" parent="1" vertex="1">
          <mxGeometry x="440" y="680" width="120" height="60" as="geometry" />
        </mxCell>
        <mxCell id="IbeRMF_jTNz4FEDVCqAd-10" value="Ataque com Arma" style="rounded=1;whiteSpace=wrap;html=1;" parent="1" vertex="1">
          <mxGeometry x="200" y="680" width="120" height="60" as="geometry" />
        </mxCell>
        <mxCell id="IbeRMF_jTNz4FEDVCqAd-82" value="" style="edgeStyle=orthogonalEdgeStyle;rounded=0;orthogonalLoop=1;jettySize=auto;html=1;entryX=-0.056;entryY=0.976;entryDx=0;entryDy=0;entryPerimeter=0;endArrow=none;startFill=0;" parent="1" source="IbeRMF_jTNz4FEDVCqAd-12" target="IbeRMF_jTNz4FEDVCqAd-71" edge="1">
          <mxGeometry relative="1" as="geometry">
            <mxPoint x="-110" y="290" as="targetPoint" />
            <Array as="points">
              <mxPoint x="-110" y="350" />
              <mxPoint x="-40" y="350" />
              <mxPoint x="-40" y="349" />
            </Array>
          </mxGeometry>
        </mxCell>
        <mxCell id="IbeRMF_jTNz4FEDVCqAd-12" value="Inimigo" style="rounded=1;whiteSpace=wrap;html=1;" parent="1" vertex="1">
          <mxGeometry x="-170" y="400" width="120" height="60" as="geometry" />
        </mxCell>
        <mxCell id="IbeRMF_jTNz4FEDVCqAd-29" style="edgeStyle=orthogonalEdgeStyle;rounded=0;orthogonalLoop=1;jettySize=auto;html=1;endArrow=none;startFill=0;" parent="1" source="IbeRMF_jTNz4FEDVCqAd-13" edge="1">
          <mxGeometry relative="1" as="geometry">
            <mxPoint x="380" y="820" as="targetPoint" />
          </mxGeometry>
        </mxCell>
        <mxCell id="IbeRMF_jTNz4FEDVCqAd-13" value="Magia" style="rounded=1;whiteSpace=wrap;html=1;" parent="1" vertex="1">
          <mxGeometry x="320" y="860" width="120" height="60" as="geometry" />
        </mxCell>
        <mxCell id="IbeRMF_jTNz4FEDVCqAd-33" style="edgeStyle=orthogonalEdgeStyle;rounded=0;orthogonalLoop=1;jettySize=auto;html=1;endArrow=none;startFill=0;" parent="1" source="IbeRMF_jTNz4FEDVCqAd-15" edge="1">
          <mxGeometry relative="1" as="geometry">
            <mxPoint x="620" y="820" as="targetPoint" />
          </mxGeometry>
        </mxCell>
        <mxCell id="IbeRMF_jTNz4FEDVCqAd-15" value="Habiliade de Classe" style="rounded=1;whiteSpace=wrap;html=1;" parent="1" vertex="1">
          <mxGeometry x="560" y="860" width="120" height="60" as="geometry" />
        </mxCell>
        <mxCell id="IbeRMF_jTNz4FEDVCqAd-55" value="" style="edgeStyle=orthogonalEdgeStyle;rounded=0;orthogonalLoop=1;jettySize=auto;html=1;endArrow=none;startFill=0;entryX=0.164;entryY=-0.028;entryDx=0;entryDy=0;entryPerimeter=0;" parent="1" source="IbeRMF_jTNz4FEDVCqAd-17" target="q6Y3ustupFghnCxS8Xfa-1" edge="1">
          <mxGeometry relative="1" as="geometry">
            <mxPoint x="341" y="310" as="targetPoint" />
          </mxGeometry>
        </mxCell>
        <mxCell id="IbeRMF_jTNz4FEDVCqAd-17" value="" style="rhombus;whiteSpace=wrap;html=1;" parent="1" vertex="1">
          <mxGeometry x="240" y="240" width="40" height="40" as="geometry" />
        </mxCell>
        <mxCell id="IbeRMF_jTNz4FEDVCqAd-43" style="edgeStyle=orthogonalEdgeStyle;rounded=0;orthogonalLoop=1;jettySize=auto;html=1;strokeColor=default;endArrow=none;startFill=0;" parent="1" source="IbeRMF_jTNz4FEDVCqAd-18" target="IbeRMF_jTNz4FEDVCqAd-2" edge="1">
          <mxGeometry relative="1" as="geometry" />
        </mxCell>
        <mxCell id="IbeRMF_jTNz4FEDVCqAd-44" style="edgeStyle=orthogonalEdgeStyle;rounded=0;orthogonalLoop=1;jettySize=auto;html=1;endArrow=none;startFill=0;" parent="1" source="IbeRMF_jTNz4FEDVCqAd-18" target="q6Y3ustupFghnCxS8Xfa-1" edge="1">
          <mxGeometry relative="1" as="geometry" />
        </mxCell>
        <mxCell id="IbeRMF_jTNz4FEDVCqAd-18" value="" style="rhombus;whiteSpace=wrap;html=1;" parent="1" vertex="1">
          <mxGeometry x="360" y="240" width="40" height="40" as="geometry" />
        </mxCell>
        <mxCell id="IbeRMF_jTNz4FEDVCqAd-59" value="" style="edgeStyle=orthogonalEdgeStyle;rounded=0;orthogonalLoop=1;jettySize=auto;html=1;entryX=0.5;entryY=1;entryDx=0;entryDy=0;endArrow=none;startFill=0;" parent="1" source="IbeRMF_jTNz4FEDVCqAd-19" target="IbeRMF_jTNz4FEDVCqAd-3" edge="1">
          <mxGeometry relative="1" as="geometry">
            <mxPoint x="620" y="260" as="targetPoint" />
          </mxGeometry>
        </mxCell>
        <mxCell id="IbeRMF_jTNz4FEDVCqAd-60" value="" style="edgeStyle=orthogonalEdgeStyle;rounded=0;orthogonalLoop=1;jettySize=auto;html=1;endArrow=none;startFill=0;entryX=0.835;entryY=0.007;entryDx=0;entryDy=0;entryPerimeter=0;" parent="1" target="q6Y3ustupFghnCxS8Xfa-1" edge="1">
          <mxGeometry relative="1" as="geometry">
            <mxPoint x="480" y="259.4" as="sourcePoint" />
            <mxPoint x="440" y="310" as="targetPoint" />
            <Array as="points">
              <mxPoint x="420" y="259" />
              <mxPoint x="420" y="310" />
              <mxPoint x="420" y="310" />
            </Array>
          </mxGeometry>
        </mxCell>
        <mxCell id="IbeRMF_jTNz4FEDVCqAd-19" value="" style="rhombus;whiteSpace=wrap;html=1;" parent="1" vertex="1">
          <mxGeometry x="480" y="240" width="40" height="40" as="geometry" />
        </mxCell>
        <mxCell id="IbeRMF_jTNz4FEDVCqAd-51" value="" style="edgeStyle=orthogonalEdgeStyle;rounded=0;orthogonalLoop=1;jettySize=auto;html=1;endArrow=none;startFill=0;" parent="1" source="IbeRMF_jTNz4FEDVCqAd-20" target="q6Y3ustupFghnCxS8Xfa-1" edge="1">
          <mxGeometry relative="1" as="geometry" />
        </mxCell>
        <mxCell id="IbeRMF_jTNz4FEDVCqAd-52" value="" style="edgeStyle=orthogonalEdgeStyle;rounded=0;orthogonalLoop=1;jettySize=auto;html=1;endArrow=none;startFill=0;" parent="1" source="IbeRMF_jTNz4FEDVCqAd-20" target="IbeRMF_jTNz4FEDVCqAd-7" edge="1">
          <mxGeometry relative="1" as="geometry" />
        </mxCell>
        <mxCell id="IbeRMF_jTNz4FEDVCqAd-20" value="" style="rhombus;whiteSpace=wrap;html=1;" parent="1" vertex="1">
          <mxGeometry x="480" y="330" width="40" height="40" as="geometry" />
        </mxCell>
        <mxCell id="IbeRMF_jTNz4FEDVCqAd-61" value="" style="edgeStyle=orthogonalEdgeStyle;rounded=0;orthogonalLoop=1;jettySize=auto;html=1;endArrow=none;startFill=0;" parent="1" source="IbeRMF_jTNz4FEDVCqAd-23" target="q6Y3ustupFghnCxS8Xfa-1" edge="1">
          <mxGeometry relative="1" as="geometry" />
        </mxCell>
        <mxCell id="IbeRMF_jTNz4FEDVCqAd-62" value="" style="edgeStyle=orthogonalEdgeStyle;rounded=0;orthogonalLoop=1;jettySize=auto;html=1;strokeColor=default;endArrow=none;startFill=0;" parent="1" source="IbeRMF_jTNz4FEDVCqAd-23" target="IbeRMF_jTNz4FEDVCqAd-8" edge="1">
          <mxGeometry relative="1" as="geometry" />
        </mxCell>
        <mxCell id="IbeRMF_jTNz4FEDVCqAd-23" value="" style="rhombus;whiteSpace=wrap;html=1;" parent="1" vertex="1">
          <mxGeometry x="360" y="420" width="40" height="40" as="geometry" />
        </mxCell>
        <mxCell id="IbeRMF_jTNz4FEDVCqAd-27" value="" style="strokeWidth=2;html=1;shape=mxgraph.flowchart.extract_or_measurement;whiteSpace=wrap;" parent="1" vertex="1">
          <mxGeometry x="480" y="780" width="40" height="40" as="geometry" />
        </mxCell>
        <mxCell id="IbeRMF_jTNz4FEDVCqAd-30" value="" style="endArrow=none;html=1;rounded=0;entryX=0.235;entryY=1.018;entryDx=0;entryDy=0;entryPerimeter=0;" parent="1" target="IbeRMF_jTNz4FEDVCqAd-27" edge="1">
          <mxGeometry width="50" height="50" relative="1" as="geometry">
            <mxPoint x="380" y="820" as="sourcePoint" />
            <mxPoint x="430" y="770" as="targetPoint" />
          </mxGeometry>
        </mxCell>
        <mxCell id="IbeRMF_jTNz4FEDVCqAd-34" value="" style="endArrow=none;html=1;rounded=0;" parent="1" edge="1">
          <mxGeometry width="50" height="50" relative="1" as="geometry">
            <mxPoint x="500" y="820" as="sourcePoint" />
            <mxPoint x="620" y="821" as="targetPoint" />
          </mxGeometry>
        </mxCell>
        <mxCell id="IbeRMF_jTNz4FEDVCqAd-36" value="" style="endArrow=none;html=1;rounded=0;entryX=0.5;entryY=1;entryDx=0;entryDy=0;" parent="1" target="IbeRMF_jTNz4FEDVCqAd-9" edge="1">
          <mxGeometry width="50" height="50" relative="1" as="geometry">
            <mxPoint x="500" y="780" as="sourcePoint" />
            <mxPoint x="550" y="730" as="targetPoint" />
          </mxGeometry>
        </mxCell>
        <mxCell id="IbeRMF_jTNz4FEDVCqAd-37" style="edgeStyle=orthogonalEdgeStyle;rounded=0;orthogonalLoop=1;jettySize=auto;html=1;endArrow=none;startFill=0;" parent="1" edge="1">
          <mxGeometry relative="1" as="geometry">
            <mxPoint x="259.71000000000004" y="640" as="targetPoint" />
            <mxPoint x="259.71000000000004" y="680" as="sourcePoint" />
          </mxGeometry>
        </mxCell>
        <mxCell id="IbeRMF_jTNz4FEDVCqAd-38" style="edgeStyle=orthogonalEdgeStyle;rounded=0;orthogonalLoop=1;jettySize=auto;html=1;endArrow=none;startFill=0;" parent="1" edge="1">
          <mxGeometry relative="1" as="geometry">
            <mxPoint x="499.71000000000004" y="640" as="targetPoint" />
            <mxPoint x="499.71000000000004" y="680" as="sourcePoint" />
          </mxGeometry>
        </mxCell>
        <mxCell id="IbeRMF_jTNz4FEDVCqAd-39" value="" style="strokeWidth=2;html=1;shape=mxgraph.flowchart.extract_or_measurement;whiteSpace=wrap;" parent="1" vertex="1">
          <mxGeometry x="359.71000000000004" y="600" width="40" height="40" as="geometry" />
        </mxCell>
        <mxCell id="IbeRMF_jTNz4FEDVCqAd-40" value="" style="endArrow=none;html=1;rounded=0;entryX=0.235;entryY=1.018;entryDx=0;entryDy=0;entryPerimeter=0;" parent="1" target="IbeRMF_jTNz4FEDVCqAd-39" edge="1">
          <mxGeometry width="50" height="50" relative="1" as="geometry">
            <mxPoint x="259.71000000000004" y="640" as="sourcePoint" />
            <mxPoint x="309.71000000000004" y="590" as="targetPoint" />
          </mxGeometry>
        </mxCell>
        <mxCell id="IbeRMF_jTNz4FEDVCqAd-41" value="" style="endArrow=none;html=1;rounded=0;" parent="1" edge="1">
          <mxGeometry width="50" height="50" relative="1" as="geometry">
            <mxPoint x="379.71000000000004" y="640" as="sourcePoint" />
            <mxPoint x="499.71000000000004" y="641" as="targetPoint" />
          </mxGeometry>
        </mxCell>
        <mxCell id="IbeRMF_jTNz4FEDVCqAd-42" value="" style="endArrow=none;html=1;rounded=0;entryX=0.5;entryY=1;entryDx=0;entryDy=0;" parent="1" edge="1">
          <mxGeometry width="50" height="50" relative="1" as="geometry">
            <mxPoint x="379.71000000000004" y="600" as="sourcePoint" />
            <mxPoint x="379.71000000000004" y="560" as="targetPoint" />
          </mxGeometry>
        </mxCell>
        <mxCell id="IbeRMF_jTNz4FEDVCqAd-45" value="(1,1)" style="text;strokeColor=none;align=center;fillColor=none;html=1;verticalAlign=middle;whiteSpace=wrap;rounded=0;" parent="1" vertex="1">
          <mxGeometry x="370" y="220" width="60" height="30" as="geometry" />
        </mxCell>
        <mxCell id="IbeRMF_jTNz4FEDVCqAd-46" value="(0,n)" style="text;strokeColor=none;align=center;fillColor=none;html=1;verticalAlign=middle;whiteSpace=wrap;rounded=0;" parent="1" vertex="1">
          <mxGeometry x="370" y="270" width="60" height="30" as="geometry" />
        </mxCell>
        <mxCell id="IbeRMF_jTNz4FEDVCqAd-63" value="(1,1)" style="text;strokeColor=none;align=center;fillColor=none;html=1;verticalAlign=middle;whiteSpace=wrap;rounded=0;" parent="1" vertex="1">
          <mxGeometry x="200" y="230" width="60" height="30" as="geometry" />
        </mxCell>
        <mxCell id="IbeRMF_jTNz4FEDVCqAd-64" value="(0,n)" style="text;strokeColor=none;align=center;fillColor=none;html=1;verticalAlign=middle;whiteSpace=wrap;rounded=0;" parent="1" vertex="1">
          <mxGeometry x="260" y="230" width="60" height="30" as="geometry" />
        </mxCell>
        <mxCell id="IbeRMF_jTNz4FEDVCqAd-65" value="(1,1)" style="text;strokeColor=none;align=center;fillColor=none;html=1;verticalAlign=middle;whiteSpace=wrap;rounded=0;" parent="1" vertex="1">
          <mxGeometry x="500" y="230" width="60" height="30" as="geometry" />
        </mxCell>
        <mxCell id="IbeRMF_jTNz4FEDVCqAd-66" value="(0,n)" style="text;strokeColor=none;align=center;fillColor=none;html=1;verticalAlign=middle;whiteSpace=wrap;rounded=0;" parent="1" vertex="1">
          <mxGeometry x="440" y="230" width="60" height="30" as="geometry" />
        </mxCell>
        <mxCell id="IbeRMF_jTNz4FEDVCqAd-67" value="(1,1)" style="text;strokeColor=none;align=center;fillColor=none;html=1;verticalAlign=middle;whiteSpace=wrap;rounded=0;" parent="1" vertex="1">
          <mxGeometry x="500" y="320" width="60" height="30" as="geometry" />
        </mxCell>
        <mxCell id="IbeRMF_jTNz4FEDVCqAd-68" value="(0,n)" style="text;strokeColor=none;align=center;fillColor=none;html=1;verticalAlign=middle;whiteSpace=wrap;rounded=0;" parent="1" vertex="1">
          <mxGeometry x="440" y="320" width="60" height="30" as="geometry" />
        </mxCell>
        <mxCell id="IbeRMF_jTNz4FEDVCqAd-73" value="" style="endArrow=none;html=1;rounded=0;exitX=0.99;exitY=0.97;exitDx=0;exitDy=0;exitPerimeter=0;" parent="1" source="IbeRMF_jTNz4FEDVCqAd-71" edge="1">
          <mxGeometry width="50" height="50" relative="1" as="geometry">
            <mxPoint x="20" y="360" as="sourcePoint" />
            <mxPoint x="319.99999999999994" y="351" as="targetPoint" />
          </mxGeometry>
        </mxCell>
        <mxCell id="IbeRMF_jTNz4FEDVCqAd-83" value="" style="edgeStyle=orthogonalEdgeStyle;rounded=0;orthogonalLoop=1;jettySize=auto;html=1;endArrow=none;startFill=0;" parent="1" source="IbeRMF_jTNz4FEDVCqAd-71" target="IbeRMF_jTNz4FEDVCqAd-5" edge="1">
          <mxGeometry relative="1" as="geometry" />
        </mxCell>
        <mxCell id="IbeRMF_jTNz4FEDVCqAd-71" value="" style="strokeWidth=2;html=1;shape=mxgraph.flowchart.extract_or_measurement;whiteSpace=wrap;" parent="1" vertex="1">
          <mxGeometry x="-50.00000000000004" y="310" width="40" height="40" as="geometry" />
        </mxCell>
        <mxCell id="IbeRMF_jTNz4FEDVCqAd-85" value="&lt;div&gt;&lt;span style=&quot;font-size: 12px;&quot;&gt;Regra de Negócio&lt;/span&gt;&lt;/div&gt;&lt;span style=&quot;font-size: 12px;&quot;&gt;uma habilidade só pode estar associada a um personagem caso a classe que ela está associada também esteja associada ao personagem&lt;/span&gt;" style="text;strokeColor=none;align=center;fillColor=none;html=1;verticalAlign=middle;whiteSpace=wrap;rounded=0;" parent="1" vertex="1">
          <mxGeometry x="-170" y="720" width="230" height="130" as="geometry" />
        </mxCell>
        <mxCell id="IbeRMF_jTNz4FEDVCqAd-95" value="" style="edgeStyle=orthogonalEdgeStyle;rounded=0;orthogonalLoop=1;jettySize=auto;html=1;entryX=1;entryY=0.5;entryDx=0;entryDy=0;endArrow=none;startFill=0;" parent="1" source="IbeRMF_jTNz4FEDVCqAd-90" target="IbeRMF_jTNz4FEDVCqAd-9" edge="1">
          <mxGeometry relative="1" as="geometry">
            <mxPoint x="740" y="470" as="targetPoint" />
            <Array as="points">
              <mxPoint x="730" y="710" />
            </Array>
          </mxGeometry>
        </mxCell>
        <mxCell id="IbeRMF_jTNz4FEDVCqAd-90" value="&lt;font style=&quot;font-size: 9px;&quot;&gt;Classe_habilidade&lt;/font&gt;" style="rhombus;whiteSpace=wrap;html=1;" parent="1" vertex="1">
          <mxGeometry x="690" y="440" width="80" height="80" as="geometry" />
        </mxCell>
        <mxCell id="IbeRMF_jTNz4FEDVCqAd-96" value="(1,1)" style="text;strokeColor=none;align=center;fillColor=none;html=1;verticalAlign=middle;whiteSpace=wrap;rounded=0;" parent="1" vertex="1">
          <mxGeometry x="370" y="400" width="60" height="30" as="geometry" />
        </mxCell>
        <mxCell id="IbeRMF_jTNz4FEDVCqAd-97" value="(0,n)" style="text;strokeColor=none;align=center;fillColor=none;html=1;verticalAlign=middle;whiteSpace=wrap;rounded=0;" parent="1" vertex="1">
          <mxGeometry x="370" y="450" width="60" height="30" as="geometry" />
        </mxCell>
        <mxCell id="IbeRMF_jTNz4FEDVCqAd-99" value="" style="edgeStyle=orthogonalEdgeStyle;rounded=0;orthogonalLoop=1;jettySize=auto;html=1;endArrow=none;startFill=0;entryX=0.5;entryY=0;entryDx=0;entryDy=0;" parent="1" source="IbeRMF_jTNz4FEDVCqAd-3" target="IbeRMF_jTNz4FEDVCqAd-90" edge="1">
          <mxGeometry relative="1" as="geometry">
            <mxPoint x="680" y="170" as="sourcePoint" />
            <mxPoint x="740" y="320" as="targetPoint" />
          </mxGeometry>
        </mxCell>
        <mxCell id="IbeRMF_jTNz4FEDVCqAd-104" value="" style="rounded=1;whiteSpace=wrap;html=1;fillColor=none;" parent="1" vertex="1">
          <mxGeometry x="670" y="440" width="120" height="80" as="geometry" />
        </mxCell>
        <mxCell id="IbeRMF_jTNz4FEDVCqAd-105" value="(0,n)" style="text;strokeColor=none;align=center;fillColor=none;html=1;verticalAlign=middle;whiteSpace=wrap;rounded=0;" parent="1" vertex="1">
          <mxGeometry x="720" y="415" width="60" height="30" as="geometry" />
        </mxCell>
        <mxCell id="IbeRMF_jTNz4FEDVCqAd-106" value="(0,n)" style="text;strokeColor=none;align=center;fillColor=none;html=1;verticalAlign=middle;whiteSpace=wrap;rounded=0;" parent="1" vertex="1">
          <mxGeometry x="720" y="520" width="60" height="30" as="geometry" />
        </mxCell>
      </root>
    </mxGraphModel>
  </diagram>
</mxfile>
